<?xml version="1.0" encoding="UTF-8"?>
<svg version="1.1" xmlns="http://www.w3.org/2000/svg" width="512" height="493">
<path d="M0 0 C5.78032564 4.2978962 8.72984028 10.41715128 12.19165039 16.56201172 C17.50485209 25.83948336 23.57485985 30.72815379 33.90234375 33.7734375 C42.73177741 36.04768556 51.46803558 33.68937518 59.39453125 29.52734375 C63.40563817 26.72206804 66.34625513 23.06661751 69.51953125 19.37109375 C74.97418124 13.42463106 81.57523316 10.1626964 89.63671875 9.4375 C102.21657452 9.14968485 110.42185989 11.4365582 119.69921875 20.26171875 C124.77430183 26.0476734 128.19819211 33.15147162 127.859375 40.93359375 C127.48520919 53.05929171 128.09286979 63.17283442 136.07421875 72.98828125 C142.27545974 79.04376657 150.08383375 82.78940049 158.75 82.765625 C165.25075246 82.38757871 170.83198717 81.03246833 176.90234375 78.7734375 C185.89387627 76.30076606 194.58147566 77.73218256 202.90234375 81.7734375 C211.05528271 87.53711241 217.60450773 94.8146614 219.62109375 104.78125 C221.22523978 116.14395105 217.53890803 124.55643162 211.12719727 133.68798828 C206.36206942 140.59677527 204.96556177 147.54657009 205.90234375 155.7734375 C207.71100635 163.88952473 211.45428132 170.45273239 217.90234375 175.7734375 C223.3153893 179.12868769 228.62934768 180.54417277 234.83984375 181.6484375 C245.89191084 183.88563426 253.29671763 188.44679465 259.90234375 197.7734375 C264.10221319 205.22481876 264.09759274 214.42435837 262.90234375 222.7734375 C260.45068462 230.87379112 256.04573692 237.21430505 248.90234375 241.7734375 C245.95290107 243.31464917 242.98522092 244.78550463 239.98657227 246.2265625 C230.94994476 250.61211063 226.64011345 255.41356793 222.90234375 264.7734375 C220.27696868 273.41878089 221.86507663 281.84181537 225.90234375 289.7734375 C229.02360259 294.27753254 232.84696788 297.77138677 237.02734375 301.2734375 C244.52972545 307.68535675 247.43577122 314.98793818 248.21484375 324.6484375 C247.92441825 333.3782865 244.52363084 341.164627 238.90234375 347.7734375 C232.66905142 353.57597386 225.13930609 357.64489852 216.47387695 357.82348633 C215.64202881 357.79279053 214.81018066 357.76209473 213.953125 357.73046875 C213.02177734 357.70919922 212.09042969 357.68792969 211.13085938 357.66601562 C209.20600496 357.61315626 207.28143802 357.54829503 205.35742188 357.47070312 C196.11013682 357.29910402 188.02820726 360.020726 180.7265625 365.796875 C174.68433675 372.34369776 171.54748978 381.27313392 171.60546875 390.0859375 C171.96116938 393.3059643 172.83755764 396.13144975 173.83984375 399.2109375 C177.16235064 409.4395123 177.77223115 417.52461483 173.90234375 427.7734375 C169.81415287 435.44042807 161.82669388 442.7017284 153.44140625 445.32421875 C140.20244456 447.66649659 131.39917703 445.62050343 119.90234375 438.7734375 C118.03655319 437.79729542 116.16239908 436.8368373 114.27734375 435.8984375 C113.14425781 435.31449219 113.14425781 435.31449219 111.98828125 434.71875 C104.97772351 431.54168076 97.4597688 431.99097653 90.27734375 434.3984375 C80.94103983 438.19089946 74.91193351 443.40620625 70.90234375 452.7734375 C69.99411098 455.77046416 69.22923122 458.79949131 68.46484375 461.8359375 C65.78475457 472.36231912 61.48677371 478.57169325 52.30859375 484.58203125 C43.50942064 488.93876469 31.42513317 489.41387733 21.96484375 486.7109375 C12.58176415 482.84310316 7.61906805 476.43843101 2.90234375 467.7734375 C-2.63667815 458.51195464 -8.63431367 452.17887615 -19.09765625 448.7734375 C-27.79988192 446.67817403 -36.41509847 448.32804314 -44.22265625 452.578125 C-48.67716606 455.417875 -52.24907562 458.70727209 -55.53515625 462.8359375 C-60.86550054 468.94633217 -67.70343022 472.37438424 -75.796875 473.109375 C-88.60318468 473.23480409 -97.43404416 471.35403103 -106.99609375 462.15625 C-111.74775859 456.76867463 -114.18665747 450.75855253 -114.2734375 443.58203125 C-114.29728516 442.55400391 -114.32113281 441.52597656 -114.34570312 440.46679688 C-114.38812678 438.32375976 -114.41966821 436.18047504 -114.43945312 434.03710938 C-114.70202685 424.21196685 -117.0364968 415.86637456 -123.921875 408.59765625 C-130.71452354 402.90256313 -139.14909524 399.14785421 -148.09765625 399.7734375 C-152.1786425 400.52603497 -156.12156056 401.59329259 -160.09765625 402.7734375 C-170.59737609 405.83662466 -179.62006891 405.59177997 -189.484375 400.5546875 C-197.21095714 395.83215852 -203.19858416 389.04963986 -205.66015625 380.21875 C-207.47615707 370.06860256 -206.00193734 361.71246642 -200.34375 353.10546875 C-199.14953764 351.41761537 -197.93155603 349.74616538 -196.68359375 348.09765625 C-192.26978625 341.62914525 -191.35989315 333.74972195 -192.49609375 326.0859375 C-194.88494214 317.0926259 -199.54668704 309.86125569 -207.546875 304.98046875 C-212.19202179 302.78238244 -217.0942998 301.83297181 -222.09765625 300.7734375 C-232.92395534 298.24261434 -240.10944587 293.37841398 -246.2890625 283.95703125 C-250.54894547 276.13487681 -250.33168297 266.33020871 -248.4375 257.80078125 C-247.53179176 255.264014 -246.47691174 253.08473534 -245.09765625 250.7734375 C-244.49050781 249.75056641 -244.49050781 249.75056641 -243.87109375 248.70703125 C-239.62724596 242.90861889 -233.63316383 240.08062274 -227.31567383 237.00561523 C-219.5880214 233.22522495 -213.44966916 228.77965074 -210.1875 220.44921875 C-207.16324736 211.2639305 -207.33465846 203.75561229 -211.09765625 194.7734375 C-214.1175127 189.27411997 -218.55623707 185.42503868 -223.22265625 181.3359375 C-228.1152761 177.04113928 -231.32931598 173.10685477 -233.09765625 166.7734375 C-233.28328125 166.12375 -233.46890625 165.4740625 -233.66015625 164.8046875 C-235.61005346 155.75159331 -233.38004699 147.3962311 -228.77734375 139.51171875 C-223.04190135 131.28464973 -215.88464825 126.74351335 -206.09765625 124.7734375 C-201.06262025 124.47349055 -196.05339454 124.7453481 -191.01953125 124.97851562 C-181.56844027 125.22690968 -173.64793504 123.04471859 -166.62890625 116.47265625 C-160.10967318 109.23830323 -157.63020347 101.39046187 -157.76171875 91.7109375 C-158.12230795 88.55787848 -158.96401904 86.04465021 -160.09765625 83.0859375 C-163.5332229 73.5578012 -163.86140116 63.51894893 -159.59765625 54.2109375 C-154.71590758 45.7652831 -147.57662767 40.25532334 -138.34375 37.19140625 C-129.03110701 35.45844486 -119.26525363 35.794955 -111.09765625 40.7734375 C-100.62433498 46.97729139 -91.75375588 52.14039228 -79.29296875 49.0859375 C-69.86735834 45.95277061 -63.30042361 41.48965997 -58.39453125 32.74609375 C-56.8941553 29.30697899 -55.99444698 25.915731 -55.09765625 22.2734375 C-52.80988415 12.98170739 -49.44621498 5.4335741 -41.26953125 0.0234375 C-28.12007988 -7.54459206 -13.22520319 -7.73317281 0 0 Z " fill="#30C400" transform="translate(249.09765625,5.2265625)"/>
<path d="M0 0 C11.10149297 4.61522741 20.32430107 20.30946929 27 30 C21.13727049 35.37946764 15.15946016 40.55131747 8.9765625 45.55859375 C5.04302075 48.78492393 1.18883175 52.09881129 -2.66699219 55.41723633 C-7.12443911 59.25289731 -11.6062643 63.05824499 -16.10058594 66.85058594 C-20.12821886 70.25294656 -24.12874418 73.68588046 -28.125 77.125 C-32.1862481 80.61819482 -36.27518779 84.06448551 -40.4375 87.4375 C-45.48854068 91.53915271 -50.40128396 95.78591011 -55.30786133 100.05786133 C-60.96244531 104.97866074 -66.67463329 109.82773721 -72.40722656 114.65722656 C-75.10814802 116.93421431 -77.80380307 119.2174219 -80.5 121.5 C-83.73698995 124.23981315 -86.97453536 126.97895552 -90.21484375 129.71484375 C-91.28913726 130.62230733 -92.36335587 131.5298596 -93.4375 132.4375 C-93.96972168 132.88722168 -94.50194336 133.33694336 -95.05029297 133.80029297 C-98.49181816 136.71251179 -101.91653656 139.64356308 -105.33398438 142.58398438 C-109.99181926 146.59165256 -114.66303636 150.56841613 -119.4375 154.4375 C-123.87243195 158.03639176 -128.19501321 161.74804134 -132.5 165.5 C-137.06108964 169.46400364 -141.62270962 173.42582091 -146.25 177.3125 C-147.10078125 178.03050781 -147.9515625 178.74851562 -148.828125 179.48828125 C-151 181 -151 181 -154 181 C-155.5715332 179.52026367 -155.5715332 179.52026367 -157.23828125 177.48046875 C-159.61391349 174.64628279 -162.00747367 171.86847281 -164.54296875 169.17578125 C-165.13553467 168.54647705 -165.72810059 167.91717285 -166.33862305 167.26879883 C-166.94875244 166.62322021 -167.55888184 165.9776416 -168.1875 165.3125 C-169.51080806 163.9066183 -170.83371972 162.50036339 -172.15625 161.09375 C-172.8059375 160.4028125 -173.455625 159.711875 -174.125 159 C-178.2948479 154.55216224 -182.41983409 150.06283003 -186.54833984 145.57666016 C-189.02946406 142.88189054 -191.51499116 140.19118686 -194 137.5 C-195.00002027 136.41668538 -196.00002029 135.33335206 -197 134.25 C-197.7425 133.445625 -197.7425 133.445625 -198.5 132.625 C-204 126.66666667 -209.5 120.70833333 -215 114.75 C-215.49564453 114.21310547 -215.99128906 113.67621094 -216.50195312 113.12304688 C-217.49565933 112.04642386 -218.48915114 110.96960291 -219.48242188 109.89257812 C-222.07693749 107.07986409 -224.67578073 104.27132333 -227.28125 101.46875 C-228.08949219 100.59766602 -228.08949219 100.59766602 -228.9140625 99.70898438 C-229.93871697 98.60483085 -230.96466915 97.50187954 -231.9921875 96.40039062 C-234.80331172 93.36794861 -237.45811129 90.26129117 -240 87 C-238.40584497 83.08790692 -235.86106668 80.62781914 -232.875 77.6875 C-232.38362549 77.2025708 -231.89225098 76.7176416 -231.38598633 76.21801758 C-227.96427582 72.86762753 -224.43401614 69.67834058 -220.79296875 66.5703125 C-218.05880367 64.17568426 -215.53739854 61.6008335 -213 59 C-209.67107391 60.10964203 -208.94930964 60.95096215 -206.76171875 63.58203125 C-203.23259628 67.74052778 -199.55814945 71.72422401 -195.8125 75.6875 C-194.48919194 77.0933817 -193.16628028 78.49963661 -191.84375 79.90625 C-191.1940625 80.5971875 -190.544375 81.288125 -189.875 82 C-185.7051521 86.44783776 -181.58016591 90.93716997 -177.45166016 95.42333984 C-174.970536 98.1181094 -172.48504304 100.80884481 -170 103.5 C-166.8813878 106.87759551 -163.76368452 110.25601885 -160.6484375 113.63671875 C-160.10058594 114.23097656 -159.55273438 114.82523437 -158.98828125 115.4375 C-157.93585693 116.57911283 -156.88375819 117.72102592 -155.83203125 118.86328125 C-153.91653406 120.94057794 -151.9982768 123.0017232 -150 125 C-146.14954232 124.73839778 -144.14595992 122.5701366 -141.4375 120 C-137.97890451 116.79348873 -134.48470189 113.7096851 -130.8125 110.75 C-126.33785819 107.12737038 -121.96605104 103.40525597 -117.625 99.625 C-111.32566763 94.14005117 -104.9760422 88.72004909 -98.58837891 83.33837891 C-95.91091047 81.08232573 -93.23627043 78.82293394 -90.5625 76.5625 C-90.03011719 76.11261719 -89.49773437 75.66273438 -88.94921875 75.19921875 C-85.50778995 72.28724054 -82.08328959 69.35628733 -78.66601562 66.41601562 C-74.00818074 62.40834744 -69.33696364 58.43158387 -64.5625 54.5625 C-59.45692535 50.41939009 -54.50199947 46.1176955 -49.54711914 41.79711914 C-45.91262149 38.63534162 -42.24479157 35.53149794 -38.5 32.5 C-33.47256484 28.42732998 -28.58846791 24.20509805 -23.70947266 19.95727539 C-19.4552381 16.2553202 -15.17996588 12.58035491 -10.875 8.9375 C-10.35502441 8.49680176 -9.83504883 8.05610352 -9.29931641 7.60205078 C-6.2386852 5.01736222 -3.13874242 2.48914921 0 0 Z " fill="#FDFEFD" transform="translate(363,156)"/>
</svg>
